<svg xmlns="http://www.w3.org/2000/svg" xmlns:xlink="http://www.w3.org/1999/xlink" width="2000" zoomAndPan="magnify" viewBox="0 0 1500 1499.999933" height="2000" preserveAspectRatio="xMidYMid meet" version="1.0"><defs><g/><clipPath id="79d95a3560"><path d="M 843 669 L 848.132812 669 L 848.132812 831 L 843 831 Z M 843 669 " clip-rule="nonzero"/></clipPath><clipPath id="7499b8affe"><path d="M 651.867188 669 L 657 669 L 657 831 L 651.867188 831 Z M 651.867188 669 " clip-rule="nonzero"/></clipPath><clipPath id="5e7a7e79d7"><path d="M 669 651.867188 L 831 651.867188 L 831 657 L 669 657 Z M 669 651.867188 " clip-rule="nonzero"/></clipPath><clipPath id="ab05eb7564"><path d="M 669 843 L 831 843 L 831 848.132812 L 669 848.132812 Z M 669 843 " clip-rule="nonzero"/></clipPath><clipPath id="dd05d8fd0e"><path d="M 830 651.867188 L 848.132812 651.867188 L 848.132812 670 L 830 670 Z M 830 651.867188 " clip-rule="nonzero"/></clipPath><clipPath id="abddf95245"><path d="M 651.867188 651.867188 L 670 651.867188 L 670 670 L 651.867188 670 Z M 651.867188 651.867188 " clip-rule="nonzero"/></clipPath><clipPath id="93a4a3c9ab"><path d="M 830 830 L 848.132812 830 L 848.132812 848.132812 L 830 848.132812 Z M 830 830 " clip-rule="nonzero"/></clipPath><clipPath id="1305c2753b"><path d="M 651.867188 830 L 670 830 L 670 848.132812 L 651.867188 848.132812 Z M 651.867188 830 " clip-rule="nonzero"/></clipPath><clipPath id="0870c31da8"><path d="M 650.96875 650.96875 L 848.96875 650.96875 L 848.96875 848.96875 L 650.96875 848.96875 Z M 650.96875 650.96875 " clip-rule="nonzero"/></clipPath></defs><rect x="-150" width="1800" fill="#ffffff" y="-149.999993" height="1799.99992" fill-opacity="1"/><rect x="-150" width="1800" fill="#ffffff" y="-149.999993" height="1799.99992" fill-opacity="1"/><g clip-path="url(#79d95a3560)"><path fill="#5f6334" d="M 843.109375 669.117188 L 849.027344 669.117188 L 849.027344 830.878906 L 843.109375 830.878906 Z M 843.109375 669.117188 " fill-opacity="1" fill-rule="nonzero"/></g><g clip-path="url(#7499b8affe)"><path fill="#5f6334" d="M 650.96875 669.117188 L 656.886719 669.117188 L 656.886719 830.878906 L 650.96875 830.878906 Z M 650.96875 669.117188 " fill-opacity="1" fill-rule="nonzero"/></g><g clip-path="url(#5e7a7e79d7)"><path fill="#5f6334" d="M 669.117188 650.96875 L 830.878906 650.96875 L 830.878906 656.886719 L 669.117188 656.886719 Z M 669.117188 650.96875 " fill-opacity="1" fill-rule="nonzero"/></g><g clip-path="url(#ab05eb7564)"><path fill="#5f6334" d="M 669.117188 843.109375 L 830.878906 843.109375 L 830.878906 849.027344 L 669.117188 849.027344 Z M 669.117188 843.109375 " fill-opacity="1" fill-rule="nonzero"/></g><g clip-path="url(#dd05d8fd0e)"><path fill="#5f6334" d="M 843.109375 656.886719 L 843.109375 669.117188 L 849.027344 669.117188 L 849.027344 650.96875 L 830.878906 650.96875 L 830.878906 656.886719 Z M 843.109375 656.886719 " fill-opacity="1" fill-rule="nonzero"/></g><g clip-path="url(#abddf95245)"><path fill="#5f6334" d="M 656.886719 656.886719 L 669.117188 656.886719 L 669.117188 650.96875 L 650.96875 650.96875 L 650.96875 669.117188 L 656.886719 669.117188 Z M 656.886719 656.886719 " fill-opacity="1" fill-rule="nonzero"/></g><g clip-path="url(#93a4a3c9ab)"><path fill="#5f6334" d="M 843.109375 843.109375 L 830.878906 843.109375 L 830.878906 849.027344 L 849.027344 849.027344 L 849.027344 830.878906 L 843.109375 830.878906 Z M 843.109375 843.109375 " fill-opacity="1" fill-rule="nonzero"/></g><g clip-path="url(#1305c2753b)"><path fill="#5f6334" d="M 656.886719 843.109375 L 656.886719 830.878906 L 650.96875 830.878906 L 650.96875 849.027344 L 669.117188 849.027344 L 669.117188 843.109375 Z M 656.886719 843.109375 " fill-opacity="1" fill-rule="nonzero"/></g><g clip-path="url(#0870c31da8)"><path stroke-linecap="butt" transform="matrix(0.75, 0, 0, 0.75, 650.968561, 650.968508)" fill="none" stroke-linejoin="miter" d="M 0.000251627 0.00032276 L 0.000251627 264.078487 L 264.078416 264.078487 L 264.078416 0.00032276 L 0.000251627 0.00032276 " stroke="#5f6334" stroke-width="24" stroke-opacity="1" stroke-miterlimit="4"/></g><g fill="#5f6334" fill-opacity="1"><g transform="translate(671.292464, 800.999911)"><g><path d="M 34.25 -19.40625 L 67.171875 -19.40625 L 67.171875 0 L 9.109375 0 L 9.109375 -103.1875 L 34.25 -103.1875 Z M 34.25 -19.40625 "/></g></g></g><g fill="#5f6334" fill-opacity="1"><g transform="translate(736.672053, 800.999911)"><g><path d="M 50.5625 -82.015625 C 60.363281 -82.015625 68.300781 -79.050781 74.375 -73.125 C 80.445312 -67.195312 83.484375 -58.644531 83.484375 -47.46875 L 83.484375 0 L 70.265625 0 L 70.265625 -45.5625 C 70.265625 -53.601562 68.253906 -59.753906 64.234375 -64.015625 C 60.210938 -68.273438 54.722656 -70.40625 47.765625 -70.40625 C 40.710938 -70.40625 35.101562 -68.195312 30.9375 -63.78125 C 26.769531 -59.375 24.6875 -52.957031 24.6875 -44.53125 L 24.6875 0 L 11.3125 0 L 11.3125 -80.546875 L 24.6875 -80.546875 L 24.6875 -69.078125 C 27.332031 -73.191406 30.929688 -76.375 35.484375 -78.625 C 40.046875 -80.882812 45.070312 -82.015625 50.5625 -82.015625 Z M 50.5625 -82.015625 "/></g></g></g></svg>