<svg xmlns="http://www.w3.org/2000/svg" xmlns:xlink="http://www.w3.org/1999/xlink" width="2000" zoomAndPan="magnify" viewBox="0 0 1500 1499.999933" height="2000" preserveAspectRatio="xMidYMid meet" version="1.0"><defs><g/></defs><rect x="-150" width="1800" fill="#ffffff" y="-149.999993" height="1799.99992" fill-opacity="1"/><rect x="-150" width="1800" fill="#ffffff" y="-149.999993" height="1799.99992" fill-opacity="1"/><g fill="#5f6334" fill-opacity="1"><g transform="translate(372.374504, 777.374913)"><g><path d="M 18.640625 -10.5625 L 36.5625 -10.5625 L 36.5625 0 L 4.953125 0 L 4.953125 -56.15625 L 18.640625 -56.15625 Z M 18.640625 -10.5625 "/></g></g></g><g fill="#5f6334" fill-opacity="1"><g transform="translate(425.330558, 777.374913)"><g><path d="M 39.921875 -9.921875 L 18.953125 -9.921875 L 15.59375 0 L 1.28125 0 L 21.59375 -56.15625 L 37.4375 -56.15625 L 57.765625 0 L 43.28125 0 Z M 36.40625 -20.484375 L 29.4375 -41.046875 L 22.5625 -20.484375 Z M 36.40625 -20.484375 "/></g></g></g><g fill="#5f6334" fill-opacity="1"><g transform="translate(499.084588, 777.374913)"><g><path d="M 18.640625 -10.5625 L 36.5625 -10.5625 L 36.5625 0 L 4.953125 0 L 4.953125 -56.15625 L 18.640625 -56.15625 Z M 18.640625 -10.5625 "/></g></g></g><g fill="#5f6334" fill-opacity="1"><g transform="translate(552.040642, 777.374913)"><g><path d="M 39.921875 -9.921875 L 18.953125 -9.921875 L 15.59375 0 L 1.28125 0 L 21.59375 -56.15625 L 37.4375 -56.15625 L 57.765625 0 L 43.28125 0 Z M 36.40625 -20.484375 L 29.4375 -41.046875 L 22.5625 -20.484375 Z M 36.40625 -20.484375 "/></g></g></g><g fill="#5f6334" fill-opacity="1"><g transform="translate(625.794672, 777.374913)"><g/></g></g><g fill="#5f6334" fill-opacity="1"><g transform="translate(657.561983, 777.374913)"><g><path d="M 27.515625 -44.640625 C 32.847656 -44.640625 37.164062 -43.023438 40.46875 -39.796875 C 43.78125 -36.566406 45.4375 -31.914062 45.4375 -25.84375 L 45.4375 0 L 38.234375 0 L 38.234375 -24.796875 C 38.234375 -29.171875 37.140625 -32.515625 34.953125 -34.828125 C 32.773438 -37.148438 29.789062 -38.3125 26 -38.3125 C 22.15625 -38.3125 19.097656 -37.113281 16.828125 -34.71875 C 14.566406 -32.320312 13.4375 -28.828125 13.4375 -24.234375 L 13.4375 0 L 6.15625 0 L 6.15625 -43.84375 L 13.4375 -43.84375 L 13.4375 -37.59375 C 14.875 -39.832031 16.832031 -41.566406 19.3125 -42.796875 C 21.800781 -44.023438 24.535156 -44.640625 27.515625 -44.640625 Z M 27.515625 -44.640625 "/></g></g></g><g fill="#5f6334" fill-opacity="1"><g transform="translate(723.55677, 777.374913)"><g><path d="M 45.046875 -43.84375 L 45.046875 0 L 37.765625 0 L 37.765625 -6.484375 C 36.378906 -4.242188 34.441406 -2.492188 31.953125 -1.234375 C 29.472656 0.015625 26.742188 0.640625 23.765625 0.640625 C 20.347656 0.640625 17.28125 -0.0625 14.5625 -1.46875 C 11.84375 -2.882812 9.695312 -5.003906 8.125 -7.828125 C 6.550781 -10.660156 5.765625 -14.101562 5.765625 -18.15625 L 5.765625 -43.84375 L 12.953125 -43.84375 L 12.953125 -19.125 C 12.953125 -14.800781 14.046875 -11.476562 16.234375 -9.15625 C 18.421875 -6.84375 21.410156 -5.6875 25.203125 -5.6875 C 29.097656 -5.6875 32.164062 -6.882812 34.40625 -9.28125 C 36.644531 -11.675781 37.765625 -15.171875 37.765625 -19.765625 L 37.765625 -43.84375 Z M 45.046875 -43.84375 "/></g></g></g><g fill="#5f6334" fill-opacity="1"><g transform="translate(789.551557, 777.374913)"><g><path d="M 15.046875 -37.84375 L 15.046875 -12 C 15.046875 -9.863281 15.5 -8.351562 16.40625 -7.46875 C 17.3125 -6.59375 18.882812 -6.15625 21.125 -6.15625 L 26.484375 -6.15625 L 26.484375 0 L 19.921875 0 C 15.867188 0 12.828125 -0.929688 10.796875 -2.796875 C 8.773438 -4.660156 7.765625 -7.726562 7.765625 -12 L 7.765625 -37.84375 L 2.078125 -37.84375 L 2.078125 -43.84375 L 7.765625 -43.84375 L 7.765625 -54.875 L 15.046875 -54.875 L 15.046875 -43.84375 L 26.484375 -43.84375 L 26.484375 -37.84375 Z M 15.046875 -37.84375 "/></g></g></g><g fill="#5f6334" fill-opacity="1"><g transform="translate(833.468485, 777.374913)"><g><path d="M 13.4375 -36.71875 C 14.71875 -39.226562 16.546875 -41.175781 18.921875 -42.5625 C 21.296875 -43.945312 24.1875 -44.640625 27.59375 -44.640625 L 27.59375 -37.125 L 25.6875 -37.125 C 17.519531 -37.125 13.4375 -32.695312 13.4375 -23.84375 L 13.4375 0 L 6.15625 0 L 6.15625 -43.84375 L 13.4375 -43.84375 Z M 13.4375 -36.71875 "/></g></g></g><g fill="#5f6334" fill-opacity="1"><g transform="translate(878.10536, 777.374913)"><g><path d="M 9.921875 -50.953125 C 8.535156 -50.953125 7.359375 -51.429688 6.390625 -52.390625 C 5.429688 -53.359375 4.953125 -54.535156 4.953125 -55.921875 C 4.953125 -57.304688 5.429688 -58.476562 6.390625 -59.4375 C 7.359375 -60.394531 8.535156 -60.875 9.921875 -60.875 C 11.253906 -60.875 12.382812 -60.394531 13.3125 -59.4375 C 14.25 -58.476562 14.71875 -57.304688 14.71875 -55.921875 C 14.71875 -54.535156 14.25 -53.359375 13.3125 -52.390625 C 12.382812 -51.429688 11.253906 -50.953125 9.921875 -50.953125 Z M 13.4375 -43.84375 L 13.4375 0 L 6.15625 0 L 6.15625 -43.84375 Z M 13.4375 -43.84375 "/></g></g></g><g fill="#5f6334" fill-opacity="1"><g transform="translate(912.583201, 777.374913)"><g><path d="M 3.4375 -22 C 3.4375 -26.53125 4.34375 -30.488281 6.15625 -33.875 C 7.96875 -37.257812 10.488281 -39.882812 13.71875 -41.75 C 16.945312 -43.625 20.640625 -44.5625 24.796875 -44.5625 C 30.179688 -44.5625 34.617188 -43.253906 38.109375 -40.640625 C 41.609375 -38.023438 43.921875 -34.398438 45.046875 -29.765625 L 37.203125 -29.765625 C 36.453125 -32.429688 34.992188 -34.535156 32.828125 -36.078125 C 30.671875 -37.628906 27.992188 -38.40625 24.796875 -38.40625 C 20.640625 -38.40625 17.28125 -36.976562 14.71875 -34.125 C 12.15625 -31.269531 10.875 -27.226562 10.875 -22 C 10.875 -16.71875 12.15625 -12.632812 14.71875 -9.75 C 17.28125 -6.875 20.640625 -5.4375 24.796875 -5.4375 C 27.992188 -5.4375 30.660156 -6.179688 32.796875 -7.671875 C 34.929688 -9.171875 36.398438 -11.304688 37.203125 -14.078125 L 45.046875 -14.078125 C 43.867188 -9.597656 41.519531 -6.007812 38 -3.3125 C 34.476562 -0.625 30.078125 0.71875 24.796875 0.71875 C 20.640625 0.71875 16.945312 -0.210938 13.71875 -2.078125 C 10.488281 -3.941406 7.96875 -6.582031 6.15625 -10 C 4.34375 -13.414062 3.4375 -17.414062 3.4375 -22 Z M 3.4375 -22 "/></g></g></g><g fill="#5f6334" fill-opacity="1"><g transform="translate(975.938238, 777.374913)"><g><path d="M 9.921875 -50.953125 C 8.535156 -50.953125 7.359375 -51.429688 6.390625 -52.390625 C 5.429688 -53.359375 4.953125 -54.535156 4.953125 -55.921875 C 4.953125 -57.304688 5.429688 -58.476562 6.390625 -59.4375 C 7.359375 -60.394531 8.535156 -60.875 9.921875 -60.875 C 11.253906 -60.875 12.382812 -60.394531 13.3125 -59.4375 C 14.25 -58.476562 14.71875 -57.304688 14.71875 -55.921875 C 14.71875 -54.535156 14.25 -53.359375 13.3125 -52.390625 C 12.382812 -51.429688 11.253906 -50.953125 9.921875 -50.953125 Z M 13.4375 -43.84375 L 13.4375 0 L 6.15625 0 L 6.15625 -43.84375 Z M 13.4375 -43.84375 "/></g></g></g><g fill="#5f6334" fill-opacity="1"><g transform="translate(1010.416102, 777.374913)"><g><path d="M 25.28125 0.71875 C 21.175781 0.71875 17.457031 -0.210938 14.125 -2.078125 C 10.789062 -3.941406 8.175781 -6.59375 6.28125 -10.03125 C 4.382812 -13.476562 3.4375 -17.46875 3.4375 -22 C 3.4375 -26.476562 4.410156 -30.4375 6.359375 -33.875 C 8.304688 -37.320312 10.957031 -39.960938 14.3125 -41.796875 C 17.675781 -43.640625 21.4375 -44.5625 25.59375 -44.5625 C 29.757812 -44.5625 33.519531 -43.640625 36.875 -41.796875 C 40.238281 -39.960938 42.894531 -37.335938 44.84375 -33.921875 C 46.789062 -30.503906 47.765625 -26.53125 47.765625 -22 C 47.765625 -17.46875 46.765625 -13.476562 44.765625 -10.03125 C 42.765625 -6.59375 40.054688 -3.941406 36.640625 -2.078125 C 33.222656 -0.210938 29.4375 0.71875 25.28125 0.71875 Z M 25.28125 -5.6875 C 27.894531 -5.6875 30.347656 -6.296875 32.640625 -7.515625 C 34.929688 -8.742188 36.78125 -10.582031 38.1875 -13.03125 C 39.601562 -15.488281 40.3125 -18.476562 40.3125 -22 C 40.3125 -25.519531 39.617188 -28.503906 38.234375 -30.953125 C 36.847656 -33.410156 35.035156 -35.238281 32.796875 -36.4375 C 30.554688 -37.632812 28.128906 -38.234375 25.515625 -38.234375 C 22.847656 -38.234375 20.40625 -37.632812 18.1875 -36.4375 C 15.976562 -35.238281 14.207031 -33.410156 12.875 -30.953125 C 11.539062 -28.503906 10.875 -25.519531 10.875 -22 C 10.875 -18.425781 11.523438 -15.410156 12.828125 -12.953125 C 14.140625 -10.503906 15.890625 -8.679688 18.078125 -7.484375 C 20.265625 -6.285156 22.664062 -5.6875 25.28125 -5.6875 Z M 33.453125 -56.796875 L 16.40625 -47.6875 L 16.40625 -53.125 L 33.453125 -63.125 Z M 33.453125 -56.796875 "/></g></g></g><g fill="#5f6334" fill-opacity="1"><g transform="translate(1076.410901, 777.374913)"><g><path d="M 27.515625 -44.640625 C 32.847656 -44.640625 37.164062 -43.023438 40.46875 -39.796875 C 43.78125 -36.566406 45.4375 -31.914062 45.4375 -25.84375 L 45.4375 0 L 38.234375 0 L 38.234375 -24.796875 C 38.234375 -29.171875 37.140625 -32.515625 34.953125 -34.828125 C 32.773438 -37.148438 29.789062 -38.3125 26 -38.3125 C 22.15625 -38.3125 19.097656 -37.113281 16.828125 -34.71875 C 14.566406 -32.320312 13.4375 -28.828125 13.4375 -24.234375 L 13.4375 0 L 6.15625 0 L 6.15625 -43.84375 L 13.4375 -43.84375 L 13.4375 -37.59375 C 14.875 -39.832031 16.832031 -41.566406 19.3125 -42.796875 C 21.800781 -44.023438 24.535156 -44.640625 27.515625 -44.640625 Z M 27.515625 -44.640625 "/></g></g></g></svg>