<svg xmlns="http://www.w3.org/2000/svg" xmlns:xlink="http://www.w3.org/1999/xlink" width="2000" zoomAndPan="magnify" viewBox="0 0 1500 1499.999933" height="2000" preserveAspectRatio="xMidYMid meet" version="1.0"><defs><g/><clipPath id="47b1039233"><path d="M 994 655 L 1000.578125 655 L 1000.578125 845 L 994 845 Z M 994 655 " clip-rule="nonzero"/></clipPath><clipPath id="b6af109580"><path d="M 769.933594 655 L 776 655 L 776 845 L 769.933594 845 Z M 769.933594 655 " clip-rule="nonzero"/></clipPath><clipPath id="298c65d598"><path d="M 790 634.675781 L 981 634.675781 L 981 641 L 790 641 Z M 790 634.675781 " clip-rule="nonzero"/></clipPath><clipPath id="e72d580c37"><path d="M 790 859 L 981 859 L 981 865.324219 L 790 865.324219 Z M 790 859 " clip-rule="nonzero"/></clipPath><clipPath id="852552d405"><path d="M 980 634.675781 L 1000.578125 634.675781 L 1000.578125 656 L 980 656 Z M 980 634.675781 " clip-rule="nonzero"/></clipPath><clipPath id="72b3c6aa71"><path d="M 769.933594 634.675781 L 791 634.675781 L 791 656 L 769.933594 656 Z M 769.933594 634.675781 " clip-rule="nonzero"/></clipPath><clipPath id="030c628e5d"><path d="M 980 844 L 1000.578125 844 L 1000.578125 865.324219 L 980 865.324219 Z M 980 844 " clip-rule="nonzero"/></clipPath><clipPath id="39bfead5a0"><path d="M 769.933594 844 L 791 844 L 791 865.324219 L 769.933594 865.324219 Z M 769.933594 844 " clip-rule="nonzero"/></clipPath><clipPath id="b9bea81e17"><path d="M 769.03125 633.777344 L 1001.472656 633.777344 L 1001.472656 866.21875 L 769.03125 866.21875 Z M 769.03125 633.777344 " clip-rule="nonzero"/></clipPath><clipPath id="9a1d922459"><rect x="0" width="256" y="0" height="242"/></clipPath><clipPath id="842f0804ce"><rect x="0" width="136" y="0" height="242"/></clipPath></defs><rect x="-150" width="1800" fill="#ffffff" y="-149.999993" height="1799.99992" fill-opacity="1"/><rect x="-150" width="1800" fill="#ffffff" y="-149.999993" height="1799.99992" fill-opacity="1"/><g clip-path="url(#47b1039233)"><path fill="#ffffff" d="M 994.585938 655.082031 L 1001.53125 655.082031 L 1001.53125 844.972656 L 994.585938 844.972656 Z M 994.585938 655.082031 " fill-opacity="1" fill-rule="nonzero"/></g><g clip-path="url(#b6af109580)"><path fill="#ffffff" d="M 769.03125 655.082031 L 775.980469 655.082031 L 775.980469 844.972656 L 769.03125 844.972656 Z M 769.03125 655.082031 " fill-opacity="1" fill-rule="nonzero"/></g><g clip-path="url(#298c65d598)"><path fill="#ffffff" d="M 790.335938 633.777344 L 980.226562 633.777344 L 980.226562 640.722656 L 790.335938 640.722656 Z M 790.335938 633.777344 " fill-opacity="1" fill-rule="nonzero"/></g><g clip-path="url(#e72d580c37)"><path fill="#ffffff" d="M 790.335938 859.328125 L 980.226562 859.328125 L 980.226562 866.277344 L 790.335938 866.277344 Z M 790.335938 859.328125 " fill-opacity="1" fill-rule="nonzero"/></g><g clip-path="url(#852552d405)"><path fill="#ffffff" d="M 994.585938 640.722656 L 994.585938 655.082031 L 1001.53125 655.082031 L 1001.53125 633.777344 L 980.226562 633.777344 L 980.226562 640.722656 Z M 994.585938 640.722656 " fill-opacity="1" fill-rule="nonzero"/></g><g clip-path="url(#72b3c6aa71)"><path fill="#ffffff" d="M 775.980469 640.722656 L 790.335938 640.722656 L 790.335938 633.777344 L 769.03125 633.777344 L 769.03125 655.082031 L 775.980469 655.082031 Z M 775.980469 640.722656 " fill-opacity="1" fill-rule="nonzero"/></g><g clip-path="url(#030c628e5d)"><path fill="#ffffff" d="M 994.585938 859.328125 L 980.226562 859.328125 L 980.226562 866.277344 L 1001.53125 866.277344 L 1001.53125 844.972656 L 994.585938 844.972656 Z M 994.585938 859.328125 " fill-opacity="1" fill-rule="nonzero"/></g><g clip-path="url(#39bfead5a0)"><path fill="#ffffff" d="M 775.980469 859.328125 L 775.980469 844.972656 L 769.03125 844.972656 L 769.03125 866.277344 L 790.335938 866.277344 L 790.335938 859.328125 Z M 775.980469 859.328125 " fill-opacity="1" fill-rule="nonzero"/></g><g clip-path="url(#b9bea81e17)"><path stroke-linecap="butt" transform="matrix(0.75, 0, 0, 0.75, 769.032159, 633.777165)" fill="none" stroke-linejoin="miter" d="M -0.00121215 0.000237786 L -0.00121215 309.922159 L 309.920709 309.922159 L 309.920709 0.000237786 L -0.00121215 0.000237786 " stroke="#9c9c63" stroke-width="24" stroke-opacity="1" stroke-miterlimit="4"/></g><g transform="matrix(1, 0, 0, 1, 517, 628)"><g clip-path="url(#9a1d922459)"><g fill="#5f6334" fill-opacity="1"><g transform="translate(1.643408, 181.131031)"><g><path d="M 39.859375 -22.578125 L 78.171875 -22.578125 L 78.171875 0 L 10.609375 0 L 10.609375 -120.078125 L 39.859375 -120.078125 Z M 39.859375 -22.578125 "/></g></g></g><g fill="#5f6334" fill-opacity="1"><g transform="translate(105.805447, 181.131031)"><g><path d="M 85.359375 -21.203125 L 40.53125 -21.203125 L 33.359375 0 L 2.734375 0 L 46.1875 -120.078125 L 80.046875 -120.078125 L 123.5 0 L 92.53125 0 Z M 77.828125 -43.78125 L 62.9375 -87.75 L 48.234375 -43.78125 Z M 77.828125 -43.78125 "/></g></g></g></g></g><g transform="matrix(1, 0, 0, 1, 828, 614)"><g clip-path="url(#842f0804ce)"><g fill="#9c9c63" fill-opacity="1"><g transform="translate(2.497198, 181.068239)"><g><path d="M 58.84375 -95.4375 C 70.238281 -95.4375 79.472656 -91.988281 86.546875 -85.09375 C 93.617188 -78.195312 97.15625 -68.25 97.15625 -55.25 L 97.15625 0 L 81.765625 0 L 81.765625 -53.03125 C 81.765625 -62.375 79.425781 -69.523438 74.75 -74.484375 C 70.070312 -79.453125 63.6875 -81.9375 55.59375 -81.9375 C 47.382812 -81.9375 40.851562 -79.367188 36 -74.234375 C 31.15625 -69.097656 28.734375 -61.628906 28.734375 -51.828125 L 28.734375 0 L 13.171875 0 L 13.171875 -93.734375 L 28.734375 -93.734375 L 28.734375 -80.390625 C 31.816406 -85.179688 36.007812 -88.882812 41.3125 -91.5 C 46.613281 -94.125 52.457031 -95.4375 58.84375 -95.4375 Z M 58.84375 -95.4375 "/></g></g></g></g></g></svg>