<?xml version="1.0" encoding="utf-8"?>
<!-- Generator: Adobe Adobe Illustrator 24.2.0, SVG Export Plug-In . SVG Version: 6.00 Build 0)  -->
<svg version="1.1" xmlns="http://www.w3.org/2000/svg" xmlns:xlink="http://www.w3.org/1999/xlink" x="0px" y="0px"
	 width="595.28px" height="302px" viewBox="0 0 595.28 302" style="enable-background:new 0 0 595.28 302;" xml:space="preserve">
<style type="text/css">
	.st0{display:none;}
	.st1{display:inline;fill:#E1CAAB;}
	.st2{display:inline;fill:#606334;}
	.st3{fill:#E1CAAB;stroke:#E1CAAB;stroke-width:1.0109;stroke-miterlimit:10;}
	.st4{fill:#606334;}
	.st5{fill:#E1CAAB;stroke:#E1CAAB;stroke-miterlimit:10;}
	.st6{fill:#E1CAAB;}
	.st7{fill:#EDE3CD;stroke:#E1CAAB;stroke-miterlimit:10;}
	.st8{fill:#EDE3CD;}
	
		.st9{fill:none;stroke:#606334;stroke-width:24;stroke-linecap:round;stroke-linejoin:round;stroke-miterlimit:10;stroke-dasharray:0,0,0,0,0,0;}
	
		.st10{fill:none;stroke:#606334;stroke-width:18;stroke-linecap:round;stroke-linejoin:round;stroke-miterlimit:10;stroke-dasharray:0,0,0,0,0,0;}
	.st11{fill:#5C6438;stroke:#5C6438;stroke-width:2;stroke-miterlimit:10;}
	.st12{fill:#F2F0E6;}
	.st13{fill:#606334;stroke:#616434;stroke-miterlimit:10;}
	.st14{fill:#9C9C63;}
	.st15{fill:#9C9C63;stroke:#9C9C63;stroke-miterlimit:10;}
	.st16{fill:#606334;stroke:#606334;stroke-miterlimit:10;}
	
		.st17{fill:none;stroke:#606334;stroke-width:30.3198;stroke-linecap:round;stroke-linejoin:round;stroke-miterlimit:10;stroke-dasharray:0,0,0,0,0,0;}
	
		.st18{fill:none;stroke:#606334;stroke-width:10.5134;stroke-linecap:round;stroke-linejoin:round;stroke-miterlimit:10;stroke-dasharray:0,0,0,0,0,0;}
	.st19{fill:#7A5030;}
	.st20{fill:#FFFFFF;}
	
		.st21{fill:none;stroke:#E1CAAB;stroke-width:10.5134;stroke-linecap:round;stroke-linejoin:round;stroke-miterlimit:10;stroke-dasharray:0,0,0,0,0,0;}
	
		.st22{fill:none;stroke:#F2F0E6;stroke-width:10.5134;stroke-linecap:round;stroke-linejoin:round;stroke-miterlimit:10;stroke-dasharray:0,0,0,0,0,0;}
	
		.st23{fill:none;stroke:#FFFFFF;stroke-width:10.5134;stroke-linecap:round;stroke-linejoin:round;stroke-miterlimit:10;stroke-dasharray:0,0,0,0,0,0;}
	
		.st24{fill:none;stroke:#000000;stroke-width:10.5134;stroke-linecap:round;stroke-linejoin:round;stroke-miterlimit:10;stroke-dasharray:0,0,0,0,0,0;}
	
		.st25{fill:none;stroke:#606334;stroke-width:30;stroke-linecap:round;stroke-linejoin:round;stroke-miterlimit:10;stroke-dasharray:0,0,0,0,0,0;}
</style>
<g id="Pruebas" class="st0">
</g>
<g id="Logo_Horizontal__x23_1">
</g>
<g id="Logo_vertical__x23_1">
</g>
<g id="Logo_hirizontal_fondo_claro">
</g>
<g id="Logo_Horizontal_en_fondo_verde">
</g>
<g id="Logo_Horizontal_Base">
	<path fill="#5C6438" d="M25.45,295.79c-5.6,0.23-6.46-6.52-5.84-11.74c7.92-112.08,92.63-97.2,94.14-119.74c0.2-2.99-2.03-5.63-5.01-5.86
		c-8.19-0.65-24.54,5.35-34.37,9.85c-20.51,8.52-50.64,19.78-60.28,2.34c-1.57-2.84-2.17-6.13-1.97-9.37
		c2.75-45.11,95.15-10.18,93.61-144.61c0.01-4.71,1.11-9.88,4.84-9.88c4.06,0,4.73,5.46,4.73,10.53
		c0,97.76-41.2,116.31-68.45,127.68c-12.13,5.06-17.91,9.46-19.77,13.17c-1.28,2.55,0.27,5.69,3.07,6.28
		c16.3,3.4,49.53-17.21,74.36-21.03c13.79-2.12,26.64,9.27,27.73,21.24c0.05,0.54,0.07,2.5-0.07,3.36
		c-2.92,18.04-23.77,23.16-35.87,28.6c-28.98,13.03-57.08,24.75-64.04,88.85C31.77,289.98,29.9,295.79,25.45,295.79z"/>
	<g>
		<path class="st11" d="M165.8,134.54h19.06v5.31h-25.03V97.15h5.97V134.54z"/>
		<path class="st11" d="M217.96,121.33c0-2.13-0.64-3.71-1.93-4.73c-1.29-1.02-3-1.54-5.13-1.54c-1.61,0-3.13,0.31-4.55,0.93
			c-1.43,0.62-2.62,1.42-3.59,2.38l-3.01-3.62c1.41-1.33,3.12-2.37,5.16-3.14c2.03-0.76,4.21-1.15,6.54-1.15
			c2.05,0,3.83,0.29,5.34,0.87c1.51,0.58,2.74,1.38,3.71,2.38c0.96,1.01,1.69,2.19,2.17,3.56c0.48,1.37,0.72,2.83,0.72,4.4v12.48
			c0,0.96,0.03,1.98,0.09,3.05c0.06,1.07,0.17,1.94,0.33,2.62h-5.13c-0.32-1.37-0.48-2.73-0.48-4.1h-0.18
			c-1.05,1.53-2.36,2.71-3.95,3.56s-3.47,1.27-5.64,1.27c-1.13,0-2.3-0.15-3.53-0.45c-1.23-0.3-2.34-0.79-3.35-1.48
			s-1.84-1.59-2.5-2.71c-0.66-1.12-0.99-2.51-0.99-4.16c0-2.17,0.58-3.89,1.75-5.16c1.17-1.27,2.69-2.23,4.58-2.9
			c1.89-0.66,4.02-1.09,6.39-1.3c2.37-0.2,4.76-0.3,7.18-0.3V121.33z M216.57,126.22c-1.41,0-2.86,0.06-4.37,0.18
			s-2.88,0.36-4.1,0.72c-1.23,0.36-2.24,0.9-3.04,1.63c-0.8,0.72-1.21,1.69-1.21,2.89c0,0.84,0.17,1.55,0.51,2.11
			c0.34,0.56,0.79,1.03,1.36,1.39c0.56,0.36,1.19,0.61,1.87,0.75c0.68,0.14,1.39,0.21,2.11,0.21c2.65,0,4.69-0.79,6.12-2.38
			c1.43-1.59,2.14-3.59,2.14-6v-1.51H216.57z"/>
		<path class="st11" d="M262.82,139.85c-0.08-0.72-0.14-1.54-0.18-2.44s-0.06-1.66-0.06-2.26h-0.12c-0.72,1.53-1.94,2.83-3.65,3.89
			c-1.71,1.06-3.61,1.6-5.7,1.6c-1.85,0-3.45-0.3-4.79-0.91c-1.35-0.6-2.45-1.44-3.32-2.5c-0.87-1.07-1.51-2.3-1.93-3.71
			c-0.42-1.41-0.63-2.91-0.63-4.52v-17.73h5.67v15.8c0,1.17,0.09,2.28,0.27,3.35c0.18,1.07,0.51,2,1,2.8
			c0.48,0.8,1.15,1.45,1.99,1.93c0.84,0.48,1.93,0.72,3.26,0.72c2.29,0,4.14-0.85,5.55-2.56c1.41-1.71,2.11-3.99,2.11-6.84v-15.2
			h5.67v22.43c0,0.76,0.02,1.75,0.06,2.96s0.1,2.27,0.18,3.2H262.82z"/>
		<path class="st11" d="M287.55,114.46c-0.04-1.21-0.1-2.27-0.18-3.2h5.37c0.08,0.72,0.14,1.56,0.18,2.5
			c0.04,0.94,0.06,1.72,0.06,2.32h0.18c0.8-1.69,1.98-3.05,3.53-4.07c1.55-1.02,3.29-1.54,5.22-1.54c0.88,0,1.63,0.08,2.23,0.24
			l-0.24,5.25c-0.8-0.2-1.67-0.3-2.59-0.3c-1.37,0-2.55,0.25-3.56,0.75c-1.01,0.5-1.84,1.18-2.5,2.02s-1.16,1.82-1.48,2.92
			c-0.32,1.11-0.48,2.26-0.48,3.47v15.02h-5.67v-22.43C287.61,116.65,287.59,115.66,287.55,114.46z"/>
		<path class="st11" d="M336.27,121.33c0-2.13-0.64-3.71-1.93-4.73c-1.29-1.02-3-1.54-5.13-1.54c-1.61,0-3.13,0.31-4.55,0.93
			c-1.43,0.62-2.62,1.42-3.59,2.38l-3.01-3.62c1.41-1.33,3.12-2.37,5.16-3.14c2.03-0.76,4.21-1.15,6.54-1.15
			c2.05,0,3.83,0.29,5.34,0.87c1.51,0.58,2.74,1.38,3.71,2.38c0.96,1.01,1.69,2.19,2.17,3.56c0.48,1.37,0.72,2.83,0.72,4.4v12.48
			c0,0.96,0.03,1.98,0.09,3.05c0.06,1.07,0.17,1.94,0.33,2.62H337c-0.32-1.37-0.48-2.73-0.48-4.1h-0.18
			c-1.05,1.53-2.36,2.71-3.95,3.56s-3.47,1.27-5.64,1.27c-1.13,0-2.3-0.15-3.53-0.45c-1.23-0.3-2.34-0.79-3.35-1.48
			s-1.84-1.59-2.5-2.71c-0.66-1.12-0.99-2.51-0.99-4.16c0-2.17,0.58-3.89,1.75-5.16c1.17-1.27,2.69-2.23,4.58-2.9
			c1.89-0.66,4.02-1.09,6.39-1.3c2.37-0.2,4.76-0.3,7.18-0.3V121.33z M334.89,126.22c-1.41,0-2.86,0.06-4.37,0.18
			s-2.88,0.36-4.1,0.72c-1.23,0.36-2.24,0.9-3.04,1.63c-0.8,0.72-1.21,1.69-1.21,2.89c0,0.84,0.17,1.55,0.51,2.11
			c0.34,0.56,0.79,1.03,1.36,1.39c0.56,0.36,1.19,0.61,1.87,0.75c0.68,0.14,1.39,0.21,2.11,0.21c2.65,0,4.69-0.79,6.12-2.38
			c1.43-1.59,2.14-3.59,2.14-6v-1.51H334.89z"/>
		<path class="st11" d="M386.87,139.85h-6.63l18.51-42.69h5.43l18.33,42.69h-6.75l-4.34-10.49h-20.26L386.87,139.85z M393.26,124.11
			h15.98l-7.96-20.02L393.26,124.11z"/>
		<path class="st11" d="M437.46,114.46c-0.04-1.21-0.1-2.27-0.18-3.2h5.37c0.08,0.72,0.14,1.56,0.18,2.5
			c0.04,0.94,0.06,1.72,0.06,2.32h0.18c0.8-1.69,1.98-3.05,3.53-4.07c1.55-1.02,3.29-1.54,5.22-1.54c0.88,0,1.63,0.08,2.23,0.24
			l-0.24,5.25c-0.8-0.2-1.67-0.3-2.59-0.3c-1.37,0-2.55,0.25-3.56,0.75c-1.01,0.5-1.84,1.18-2.5,2.02s-1.16,1.82-1.48,2.92
			c-0.32,1.11-0.48,2.26-0.48,3.47v15.02h-5.67v-22.43C437.52,116.65,437.5,115.66,437.46,114.46z"/>
		<path class="st11" d="M486.19,121.33c0-2.13-0.64-3.71-1.93-4.73c-1.29-1.02-3-1.54-5.13-1.54c-1.61,0-3.13,0.31-4.55,0.93
			c-1.43,0.62-2.62,1.42-3.59,2.38l-3.01-3.62c1.41-1.33,3.12-2.37,5.16-3.14c2.03-0.76,4.21-1.15,6.54-1.15
			c2.05,0,3.83,0.29,5.34,0.87c1.51,0.58,2.74,1.38,3.71,2.38c0.96,1.01,1.69,2.19,2.17,3.56c0.48,1.37,0.72,2.83,0.72,4.4v12.48
			c0,0.96,0.03,1.98,0.09,3.05c0.06,1.07,0.17,1.94,0.33,2.62h-5.13c-0.32-1.37-0.48-2.73-0.48-4.1h-0.18
			c-1.05,1.53-2.36,2.71-3.95,3.56s-3.47,1.27-5.64,1.27c-1.13,0-2.3-0.15-3.53-0.45c-1.23-0.3-2.34-0.79-3.35-1.48
			s-1.84-1.59-2.5-2.71c-0.66-1.12-0.99-2.51-0.99-4.16c0-2.17,0.58-3.89,1.75-5.16c1.17-1.27,2.69-2.23,4.58-2.9
			c1.89-0.66,4.02-1.09,6.39-1.3c2.37-0.2,4.76-0.3,7.18-0.3V121.33z M484.8,126.22c-1.41,0-2.86,0.06-4.37,0.18
			s-2.88,0.36-4.1,0.72c-1.23,0.36-2.24,0.9-3.04,1.63c-0.8,0.72-1.21,1.69-1.21,2.89c0,0.84,0.17,1.55,0.51,2.11
			c0.34,0.56,0.79,1.03,1.36,1.39c0.56,0.36,1.19,0.61,1.87,0.75c0.68,0.14,1.39,0.21,2.11,0.21c2.65,0,4.69-0.79,6.12-2.38
			c1.43-1.59,2.14-3.59,2.14-6v-1.51H484.8z"/>
		<path class="st11" d="M531.05,139.85c-0.08-0.72-0.14-1.54-0.18-2.44s-0.06-1.66-0.06-2.26h-0.12c-0.72,1.53-1.94,2.83-3.65,3.89
			c-1.71,1.06-3.61,1.6-5.7,1.6c-1.85,0-3.45-0.3-4.79-0.91c-1.35-0.6-2.45-1.44-3.32-2.5c-0.87-1.07-1.51-2.3-1.93-3.71
			c-0.42-1.41-0.63-2.91-0.63-4.52v-17.73h5.67v15.8c0,1.17,0.09,2.28,0.27,3.35c0.18,1.07,0.51,2,1,2.8
			c0.48,0.8,1.15,1.45,1.99,1.93c0.84,0.48,1.93,0.72,3.26,0.72c2.29,0,4.14-0.85,5.55-2.56c1.41-1.71,2.11-3.99,2.11-6.84v-15.2
			h5.67v22.43c0,0.76,0.02,1.75,0.06,2.96s0.1,2.27,0.18,3.2H531.05z M525.08,105.83h-4.64l6.03-8.68h6.81L525.08,105.83z"/>
		<path class="st11" d="M576.22,115.91l-16.28,19.18h16.95v4.76h-23.94v-4.64l16.16-19.3h-15.38v-4.64h22.49V115.91z"/>
	</g>
	<g>
		<path class="st11" d="M222.54,196.06l-16.13-21.59h-0.09v21.59h-0.7v-22.48h0.98l16.16,21.56h0.09v-21.56h0.7v22.48H222.54z"/>
		<path class="st11" d="M242.05,194.05c-0.39,0.54-0.84,0.99-1.35,1.35c-0.51,0.36-1.06,0.63-1.65,0.83
			c-0.59,0.19-1.21,0.29-1.84,0.29c-1.02,0-1.86-0.18-2.54-0.54c-0.68-0.36-1.22-0.84-1.62-1.43c-0.4-0.59-0.69-1.26-0.86-2
			c-0.17-0.74-0.25-1.49-0.25-2.25v-8.83h0.7v8.76c0,0.61,0.06,1.25,0.19,1.92c0.13,0.67,0.37,1.28,0.71,1.83
			c0.35,0.55,0.81,1.01,1.4,1.38c0.58,0.37,1.34,0.55,2.27,0.55c0.8,0,1.56-0.16,2.27-0.49c0.71-0.33,1.32-0.8,1.84-1.41
			s0.93-1.36,1.24-2.24s0.46-1.88,0.46-3v-7.3h0.7v10.92c0,0.23,0,0.52,0.02,0.86c0.01,0.34,0.02,0.68,0.03,1.03s0.03,0.68,0.05,1
			c0.02,0.32,0.04,0.58,0.06,0.79h-0.7c-0.02-0.21-0.04-0.48-0.05-0.79c-0.01-0.32-0.02-0.66-0.03-1.03
			c-0.01-0.37-0.02-0.73-0.03-1.08c-0.01-0.35-0.02-0.66-0.02-0.94h-0.06C242.76,192.9,242.45,193.51,242.05,194.05z"/>
		<path class="st11" d="M257.15,196.35c-0.34,0.06-0.67,0.09-0.98,0.09c-1.14,0-1.96-0.32-2.46-0.97c-0.5-0.65-0.75-1.46-0.75-2.43
			v-10.99h-3.17v-0.6h3.14v-4.29h0.73v4.29h4.29v0.6h-4.29v10.99c0,1,0.24,1.71,0.73,2.14c0.49,0.43,1.13,0.65,1.94,0.65
			c0.59,0,1.13-0.1,1.62-0.29l0.09,0.54C257.79,196.2,257.49,196.29,257.15,196.35z"/>
		<path class="st11" d="M266.93,182.01c0.93-0.67,1.94-1,3.02-1c0.11,0,0.2,0,0.29,0c0.08,0,0.18,0.01,0.29,0.03v0.6
			c-0.08-0.02-0.16-0.03-0.24-0.03s-0.13,0-0.17,0c-0.93,0-1.73,0.21-2.38,0.62s-1.2,0.95-1.62,1.62c-0.42,0.67-0.74,1.41-0.94,2.22
			s-0.3,1.62-0.3,2.43v7.56h-0.7v-10.92c0-0.23-0.01-0.52-0.02-0.86c-0.01-0.34-0.02-0.68-0.03-1.03c-0.01-0.35-0.03-0.68-0.05-1
			c-0.02-0.32-0.04-0.58-0.06-0.79h0.7c0.02,0.21,0.04,0.48,0.05,0.79c0.01,0.32,0.02,0.66,0.03,1.03c0.01,0.37,0.02,0.73,0.03,1.08
			s0.02,0.66,0.02,0.94h0.06C265.32,183.78,266,182.68,266.93,182.01z"/>
		<path class="st11" d="M276.52,175.97c-0.19,0-0.36-0.07-0.51-0.22c-0.15-0.15-0.22-0.35-0.22-0.6c0-0.23,0.07-0.42,0.22-0.57
			c0.15-0.15,0.32-0.22,0.51-0.22s0.36,0.07,0.51,0.22c0.15,0.15,0.22,0.34,0.22,0.57c0,0.25-0.08,0.46-0.24,0.6
			C276.85,175.89,276.69,175.97,276.52,175.97z M276.17,196.06v-14.6h0.7v14.6H276.17z"/>
		<path class="st11" d="M295.79,183.43c-0.55-0.57-1.2-1.02-1.94-1.33c-0.74-0.32-1.51-0.48-2.32-0.48c-1.04,0-1.97,0.2-2.79,0.59
			c-0.83,0.39-1.53,0.92-2.11,1.57c-0.58,0.66-1.03,1.42-1.35,2.29c-0.32,0.87-0.48,1.78-0.48,2.73c0,0.95,0.16,1.86,0.48,2.73
			c0.32,0.87,0.77,1.62,1.35,2.27c0.58,0.65,1.29,1.16,2.11,1.54c0.83,0.38,1.76,0.57,2.79,0.57c0.8,0,1.59-0.14,2.37-0.41
			c0.77-0.28,1.44-0.69,2.02-1.24l0.48,0.44c-0.63,0.63-1.38,1.09-2.24,1.38c-0.86,0.29-1.73,0.43-2.62,0.43
			c-1.08,0-2.07-0.19-2.97-0.57c-0.9-0.38-1.68-0.91-2.35-1.59s-1.19-1.49-1.56-2.45c-0.37-0.95-0.56-1.99-0.56-3.11
			s0.18-2.16,0.56-3.11c0.37-0.95,0.89-1.77,1.56-2.46s1.45-1.23,2.35-1.62c0.9-0.39,1.89-0.59,2.97-0.59
			c0.93,0,1.81,0.17,2.65,0.51c0.84,0.34,1.55,0.82,2.14,1.43L295.79,183.43z"/>
		<path class="st11" d="M303,175.97c-0.19,0-0.36-0.07-0.51-0.22c-0.15-0.15-0.22-0.35-0.22-0.6c0-0.23,0.07-0.42,0.22-0.57
			c0.15-0.15,0.32-0.22,0.51-0.22s0.36,0.07,0.51,0.22c0.15,0.15,0.22,0.34,0.22,0.57c0,0.25-0.08,0.46-0.24,0.6
			C303.33,175.89,303.17,175.97,303,175.97z M302.65,196.06v-14.6h0.7v14.6H302.65z"/>
		<path class="st11" d="M325.86,188.73c0,1.14-0.19,2.19-0.56,3.14c-0.37,0.95-0.89,1.77-1.57,2.46c-0.68,0.69-1.49,1.22-2.43,1.6
			c-0.94,0.38-1.97,0.57-3.1,0.57c-1.12,0-2.15-0.19-3.08-0.57c-0.93-0.38-1.74-0.92-2.41-1.6c-0.68-0.69-1.2-1.51-1.57-2.46
			c-0.37-0.95-0.56-2-0.56-3.14c0-1.14,0.18-2.18,0.56-3.13c0.37-0.94,0.89-1.75,1.57-2.43c0.68-0.68,1.48-1.21,2.41-1.59
			c0.93-0.38,1.96-0.57,3.08-0.57c1.12,0,2.15,0.19,3.1,0.57c0.94,0.38,1.75,0.91,2.43,1.59c0.68,0.68,1.2,1.49,1.57,2.43
			C325.67,186.54,325.86,187.59,325.86,188.73z M325.16,188.73c0-0.97-0.16-1.89-0.48-2.76c-0.32-0.87-0.78-1.62-1.38-2.27
			c-0.6-0.65-1.33-1.15-2.19-1.52c-0.86-0.37-1.83-0.56-2.9-0.56c-1.08,0-2.04,0.19-2.89,0.56s-1.57,0.88-2.17,1.52
			c-0.6,0.65-1.06,1.4-1.38,2.27c-0.32,0.87-0.48,1.79-0.48,2.76c0,1,0.16,1.93,0.48,2.79c0.32,0.87,0.78,1.62,1.38,2.27
			c0.6,0.65,1.33,1.16,2.17,1.54c0.85,0.38,1.81,0.57,2.89,0.57c1.08,0,2.05-0.19,2.9-0.57c0.86-0.38,1.59-0.89,2.19-1.54
			c0.6-0.64,1.06-1.4,1.38-2.27C325,190.66,325.16,189.72,325.16,188.73z"/>
		<path class="st11" d="M334.84,183.49c0.4-0.53,0.86-0.98,1.37-1.35c0.51-0.37,1.06-0.65,1.65-0.84s1.21-0.29,1.84-0.29
			c1.02,0,1.86,0.18,2.54,0.54c0.68,0.36,1.22,0.84,1.62,1.43c0.4,0.59,0.69,1.26,0.86,2c0.17,0.74,0.25,1.49,0.25,2.25v8.83h-0.7
			v-8.76c0-0.59-0.06-1.23-0.19-1.91c-0.13-0.68-0.37-1.29-0.71-1.84c-0.35-0.55-0.82-1.01-1.41-1.38s-1.34-0.56-2.25-0.56
			c-0.8,0-1.56,0.16-2.27,0.49s-1.32,0.8-1.84,1.41s-0.93,1.36-1.24,2.24s-0.46,1.88-0.46,3v7.3h-0.7v-10.92
			c0-0.23-0.01-0.52-0.02-0.86c-0.01-0.34-0.02-0.68-0.03-1.03c-0.01-0.35-0.03-0.68-0.05-1c-0.02-0.32-0.04-0.58-0.06-0.79h0.7
			c0.02,0.21,0.04,0.48,0.05,0.79c0.01,0.32,0.02,0.66,0.03,1.03c0.01,0.37,0.02,0.73,0.03,1.08s0.02,0.66,0.02,0.94h0.06
			C334.13,184.62,334.44,184.02,334.84,183.49z"/>
		<path class="st11" d="M353.64,175.97c-0.19,0-0.36-0.07-0.51-0.22c-0.15-0.15-0.22-0.35-0.22-0.6c0-0.23,0.07-0.42,0.22-0.57
			c0.15-0.15,0.32-0.22,0.51-0.22s0.36,0.07,0.51,0.22c0.15,0.15,0.22,0.34,0.22,0.57c0,0.25-0.08,0.46-0.24,0.6
			C353.97,175.89,353.81,175.97,353.64,175.97z M353.29,196.06v-14.6h0.7v14.6H353.29z"/>
		<path class="st11" d="M370.72,192.25c0,0.66-0.13,1.24-0.38,1.76c-0.25,0.52-0.6,0.96-1.03,1.32c-0.43,0.36-0.94,0.64-1.51,0.83
			c-0.57,0.19-1.19,0.29-1.84,0.29c-1.08,0-2.06-0.21-2.94-0.62c-0.88-0.41-1.6-1.02-2.17-1.83l0.57-0.38
			c1.06,1.48,2.58,2.22,4.57,2.22c0.46,0,0.94-0.07,1.41-0.22c0.48-0.15,0.91-0.37,1.3-0.67c0.39-0.3,0.71-0.67,0.95-1.11
			c0.24-0.44,0.37-0.95,0.37-1.52c0-0.68-0.15-1.23-0.46-1.65s-0.69-0.76-1.16-1.02s-0.98-0.46-1.54-0.62
			c-0.56-0.16-1.08-0.3-1.57-0.43c-0.53-0.15-1.03-0.31-1.49-0.49c-0.47-0.18-0.87-0.41-1.22-0.7c-0.35-0.29-0.62-0.64-0.83-1.06
			c-0.2-0.42-0.3-0.95-0.3-1.59c0-0.63,0.13-1.18,0.38-1.65c0.25-0.46,0.59-0.85,1.02-1.16c0.42-0.31,0.9-0.54,1.44-0.7
			s1.08-0.24,1.64-0.24c1.99,0,3.48,0.71,4.48,2.13l-0.6,0.35c-0.49-0.63-1.04-1.11-1.65-1.41s-1.35-0.46-2.22-0.46
			c-0.4,0-0.83,0.05-1.27,0.16c-0.44,0.11-0.85,0.28-1.22,0.52s-0.68,0.57-0.92,0.97c-0.24,0.4-0.36,0.89-0.36,1.46
			c0,0.63,0.1,1.14,0.3,1.52c0.2,0.38,0.48,0.69,0.84,0.92c0.36,0.23,0.79,0.43,1.3,0.59s1.07,0.31,1.68,0.46
			c0.57,0.15,1.13,0.32,1.67,0.52s1.02,0.45,1.43,0.75c0.41,0.3,0.74,0.67,0.98,1.11S370.72,191.6,370.72,192.25z"/>
		<path class="st11" d="M382.47,196.35c-0.34,0.06-0.67,0.09-0.98,0.09c-1.14,0-1.96-0.32-2.46-0.97c-0.5-0.65-0.75-1.46-0.75-2.43
			v-10.99h-3.17v-0.6h3.14v-4.29h0.73v4.29h4.29v0.6h-4.29v10.99c0,1,0.24,1.71,0.73,2.14c0.49,0.43,1.13,0.65,1.94,0.65
			c0.59,0,1.13-0.1,1.62-0.29l0.09,0.54C383.1,196.2,382.81,196.29,382.47,196.35z"/>
		<path class="st11" d="M399.42,192.76c0,0.55,0.03,1.14,0.08,1.76c0.05,0.62,0.11,1.14,0.17,1.54h-0.67
			c-0.04-0.21-0.07-0.47-0.09-0.78c-0.02-0.31-0.05-0.62-0.08-0.95c-0.03-0.33-0.05-0.65-0.06-0.97c-0.01-0.32-0.02-0.58-0.02-0.79
			h-0.09c-0.42,1.33-1.15,2.32-2.19,2.97c-1.04,0.65-2.15,0.97-3.33,0.97c-0.59,0-1.18-0.08-1.76-0.25s-1.11-0.42-1.57-0.76
			c-0.47-0.34-0.84-0.77-1.13-1.3c-0.29-0.53-0.43-1.15-0.43-1.87c0-1.04,0.27-1.87,0.81-2.51s1.21-1.13,2.02-1.48
			s1.67-0.58,2.59-0.68c0.92-0.11,1.76-0.16,2.52-0.16h2.54v-1.17c0-1.63-0.43-2.82-1.3-3.57c-0.87-0.75-2-1.13-3.4-1.13
			c-0.87,0-1.68,0.16-2.43,0.48c-0.75,0.32-1.42,0.74-2.02,1.27l-0.38-0.54c0.68-0.59,1.44-1.04,2.3-1.35s1.7-0.46,2.52-0.46
			c1.67,0,2.99,0.43,3.95,1.29c0.96,0.86,1.44,2.21,1.44,4.05V192.76z M398.72,188.09h-2.25c-0.8,0-1.65,0.05-2.54,0.14
			c-0.89,0.09-1.7,0.29-2.44,0.59c-0.74,0.3-1.35,0.72-1.83,1.27c-0.48,0.55-0.71,1.29-0.71,2.22c0,0.68,0.13,1.24,0.4,1.7
			s0.6,0.82,1.02,1.1c0.41,0.28,0.87,0.48,1.37,0.6c0.5,0.13,0.97,0.19,1.41,0.19c1.08,0,1.98-0.2,2.7-0.6
			c0.72-0.4,1.3-0.91,1.73-1.54c0.43-0.62,0.74-1.31,0.91-2.06c0.17-0.75,0.25-1.49,0.25-2.21V188.09z"/>
		<path class="st11" d="M436.57,184.82c0,1.95-0.32,3.62-0.95,5.03s-1.51,2.57-2.63,3.49c-1.12,0.92-2.44,1.6-3.95,2.05
			c-1.51,0.45-3.14,0.67-4.87,0.67h-6.38v-22.48h6.38c1.74,0,3.36,0.22,4.87,0.65c1.51,0.43,2.83,1.11,3.95,2.03
			c1.12,0.92,2,2.09,2.63,3.51S436.57,182.88,436.57,184.82z M418.5,174.22v21.21H424c1.65,0,3.2-0.21,4.65-0.62
			c1.45-0.41,2.7-1.05,3.76-1.91s1.89-1.95,2.51-3.29c0.61-1.33,0.92-2.93,0.92-4.79s-0.31-3.47-0.92-4.81
			c-0.61-1.34-1.45-2.44-2.51-3.3s-2.31-1.49-3.76-1.89c-1.45-0.4-3-0.6-4.65-0.6H418.5z"/>
		<path class="st11" d="M444.47,175.97c-0.19,0-0.36-0.07-0.51-0.22c-0.15-0.15-0.22-0.35-0.22-0.6c0-0.23,0.07-0.42,0.22-0.57
			c0.15-0.15,0.32-0.22,0.51-0.22s0.36,0.07,0.51,0.22c0.15,0.15,0.22,0.34,0.22,0.57c0,0.25-0.08,0.46-0.24,0.6
			C444.81,175.89,444.64,175.97,444.47,175.97z M444.12,196.06v-14.6h0.7v14.6H444.12z"/>
		<path class="st11" d="M452.76,188.6c0,0.89,0.13,1.77,0.4,2.64s0.67,1.65,1.21,2.33s1.22,1.24,2.05,1.67s1.8,0.63,2.92,0.63
			c1.14,0,2.16-0.23,3.05-0.68c0.89-0.46,1.66-1.12,2.32-1.98l0.51,0.44c-0.72,0.93-1.56,1.64-2.52,2.13
			c-0.96,0.49-2.08,0.73-3.35,0.73c-1.08,0-2.06-0.2-2.95-0.59c-0.89-0.39-1.66-0.94-2.3-1.63c-0.65-0.7-1.14-1.53-1.49-2.51
			c-0.35-0.97-0.52-2.03-0.52-3.18c0-1.1,0.18-2.12,0.54-3.05c0.36-0.93,0.85-1.74,1.48-2.41c0.62-0.68,1.36-1.2,2.21-1.57
			c0.85-0.37,1.76-0.56,2.73-0.56c1.14,0,2.14,0.2,2.98,0.6s1.55,0.93,2.11,1.59s0.98,1.4,1.25,2.24s0.41,1.69,0.41,2.56v0.6H452.76
			z M465.11,188c-0.02-0.95-0.19-1.82-0.49-2.6c-0.31-0.78-0.72-1.46-1.25-2.02c-0.53-0.56-1.16-0.99-1.91-1.3s-1.57-0.46-2.48-0.46
			c-1.1,0-2.04,0.23-2.83,0.68c-0.78,0.46-1.42,1.02-1.92,1.68c-0.5,0.67-0.86,1.37-1.1,2.1c-0.23,0.73-0.35,1.37-0.35,1.92H465.11z
			"/>
		<path class="st11" d="M477.78,196.35c-0.34,0.06-0.67,0.09-0.98,0.09c-1.14,0-1.96-0.32-2.46-0.97c-0.5-0.65-0.75-1.46-0.75-2.43
			v-10.99h-3.17v-0.6h3.14v-4.29h0.73v4.29h4.29v0.6h-4.29v10.99c0,1,0.24,1.71,0.73,2.14c0.49,0.43,1.13,0.65,1.94,0.65
			c0.59,0,1.13-0.1,1.62-0.29l0.09,0.54C478.41,196.2,478.12,196.29,477.78,196.35z"/>
		<path class="st11" d="M485.05,175.97c-0.19,0-0.36-0.07-0.51-0.22c-0.15-0.15-0.22-0.35-0.22-0.6c0-0.23,0.07-0.42,0.22-0.57
			c0.15-0.15,0.32-0.22,0.51-0.22s0.36,0.07,0.51,0.22c0.15,0.15,0.22,0.34,0.22,0.57c0,0.25-0.08,0.46-0.24,0.6
			C485.38,175.89,485.22,175.97,485.05,175.97z M484.7,196.06v-14.6h0.7v14.6H484.7z"/>
		<path class="st11" d="M502.13,192.25c0,0.66-0.13,1.24-0.38,1.76c-0.25,0.52-0.6,0.96-1.03,1.32c-0.43,0.36-0.94,0.64-1.51,0.83
			c-0.57,0.19-1.19,0.29-1.84,0.29c-1.08,0-2.06-0.21-2.94-0.62c-0.88-0.41-1.6-1.02-2.17-1.83l0.57-0.38
			c1.06,1.48,2.58,2.22,4.57,2.22c0.46,0,0.94-0.07,1.41-0.22c0.48-0.15,0.91-0.37,1.3-0.67c0.39-0.3,0.71-0.67,0.95-1.11
			c0.24-0.44,0.37-0.95,0.37-1.52c0-0.68-0.15-1.23-0.46-1.65s-0.69-0.76-1.16-1.02s-0.98-0.46-1.54-0.62
			c-0.56-0.16-1.08-0.3-1.57-0.43c-0.53-0.15-1.03-0.31-1.49-0.49c-0.47-0.18-0.87-0.41-1.22-0.7c-0.35-0.29-0.62-0.64-0.83-1.06
			c-0.2-0.42-0.3-0.95-0.3-1.59c0-0.63,0.13-1.18,0.38-1.65c0.25-0.46,0.59-0.85,1.02-1.16c0.42-0.31,0.9-0.54,1.44-0.7
			s1.08-0.24,1.64-0.24c1.99,0,3.48,0.71,4.48,2.13l-0.6,0.35c-0.49-0.63-1.04-1.11-1.65-1.41s-1.35-0.46-2.22-0.46
			c-0.4,0-0.83,0.05-1.27,0.16c-0.44,0.11-0.85,0.28-1.22,0.52s-0.68,0.57-0.92,0.97c-0.24,0.4-0.36,0.89-0.36,1.46
			c0,0.63,0.1,1.14,0.3,1.52c0.2,0.38,0.48,0.69,0.84,0.92c0.36,0.23,0.79,0.43,1.3,0.59s1.07,0.31,1.68,0.46
			c0.57,0.15,1.13,0.32,1.67,0.52s1.02,0.45,1.43,0.75c0.41,0.3,0.74,0.67,0.98,1.11S502.13,191.6,502.13,192.25z"/>
		<path class="st11" d="M513.88,196.35c-0.34,0.06-0.67,0.09-0.98,0.09c-1.14,0-1.96-0.32-2.46-0.97c-0.5-0.65-0.75-1.46-0.75-2.43
			v-10.99h-3.17v-0.6h3.14v-4.29h0.73v4.29h4.29v0.6h-4.29v10.99c0,1,0.24,1.71,0.73,2.14c0.49,0.43,1.13,0.65,1.94,0.65
			c0.59,0,1.13-0.1,1.62-0.29l0.09,0.54C514.51,196.2,514.22,196.29,513.88,196.35z"/>
		<path class="st11" d="M530.83,192.76c0,0.55,0.03,1.14,0.08,1.76c0.05,0.62,0.11,1.14,0.17,1.54h-0.67
			c-0.04-0.21-0.07-0.47-0.09-0.78c-0.02-0.31-0.05-0.62-0.08-0.95c-0.03-0.33-0.05-0.65-0.06-0.97c-0.01-0.32-0.02-0.58-0.02-0.79
			h-0.09c-0.42,1.33-1.15,2.32-2.19,2.97c-1.04,0.65-2.15,0.97-3.33,0.97c-0.59,0-1.18-0.08-1.76-0.25s-1.11-0.42-1.57-0.76
			c-0.47-0.34-0.84-0.77-1.13-1.3c-0.29-0.53-0.43-1.15-0.43-1.87c0-1.04,0.27-1.87,0.81-2.51s1.21-1.13,2.02-1.48
			s1.67-0.58,2.59-0.68c0.92-0.11,1.76-0.16,2.52-0.16h2.54v-1.17c0-1.63-0.43-2.82-1.3-3.57c-0.87-0.75-2-1.13-3.4-1.13
			c-0.87,0-1.68,0.16-2.43,0.48c-0.75,0.32-1.42,0.74-2.02,1.27l-0.38-0.54c0.68-0.59,1.44-1.04,2.3-1.35s1.7-0.46,2.52-0.46
			c1.67,0,2.99,0.43,3.95,1.29c0.96,0.86,1.44,2.21,1.44,4.05V192.76z M530.13,188.09h-2.25c-0.8,0-1.65,0.05-2.54,0.14
			c-0.89,0.09-1.7,0.29-2.44,0.59c-0.74,0.3-1.35,0.72-1.83,1.27c-0.48,0.55-0.71,1.29-0.71,2.22c0,0.68,0.13,1.24,0.4,1.7
			s0.6,0.82,1.02,1.1c0.41,0.28,0.87,0.48,1.37,0.6c0.5,0.13,0.97,0.19,1.41,0.19c1.08,0,1.98-0.2,2.7-0.6
			c0.72-0.4,1.3-0.91,1.73-1.54c0.43-0.62,0.74-1.31,0.91-2.06c0.17-0.75,0.25-1.49,0.25-2.21V188.09z"/>
	</g>
</g>
<g id="Logo_Editable_no_outline_strok">
</g>
<g id="Logo_en_Paleta_de_Colores">
</g>
<g id="Arte_Logo_Diseño_Base">
</g>
</svg>
